<svg id="Layer_1" data-name="Layer 1" xmlns="http://www.w3.org/2000/svg" viewBox="0 0 403.08 308.33">
  <defs>
    <style>.cls-1{fill:#fff;}.cls-2{fill:#4bc2ec;}.cls-3{fill:#26a9e0;}</style>
  </defs>
  <path class="cls-1"
        d="M305.76,547.23a100.33,100.33,0,0,1-4.94-200.53c3.77-52,49.22-94.8,102.29-94.8a99.32,99.32,0,0,1,69.38,28.17c17.82,17.24,29.42,41.63,31.85,66.93a100.33,100.33,0,0,1,3.43,199.44l-.36,0-45.52.58-64.06-64.36c-7.46,11-16.74,23.67-27.24,34.32C350.56,537.35,329.35,547.23,305.76,547.23Zm-7.11-164.16a64.21,64.21,0,0,0,7.11,128.06c27.14,0,47.61-26.31,66.09-54.52ZM502.24,510.74a64.25,64.25,0,0,0-7.06-128.06c-14.71,0-28,6.56-41.84,20.66-9.58,9.75-18.28,22-25.75,33.21ZM401.52,410.63c8.78-12.82,19.92-27.55,33-39.23,10.88-9.7,22-16.42,33.8-20.43v-1.1A72.08,72.08,0,0,0,447.39,306a63.43,63.43,0,0,0-44.28-18c-17,0-34,7.15-46.6,19.62a65.81,65.81,0,0,0-19.43,39Z"
        transform="translate(-198.93 -245.4)"/>
  <path class="cls-2"
        d="M403.11,258.4A92.84,92.84,0,0,1,468,284.74c16.73,16.19,27.63,39.12,29.9,62.91v.11l.42,5.37A93.83,93.83,0,0,1,507,540l-42.4.55-67.73-68C387.31,487,377.26,501,366,512.47c-18.76,19-38.45,28.26-60.21,28.26a93.83,93.83,0,1,1,0-187.65h1.31c.35-51.39,44.19-94.68,96-94.68m-.59,162.39c10.62-16.05,22.4-32.1,36.34-44.54,11.48-10.23,23.35-17,35.92-20.46l0-1.62,0-4.61c-1.83-18.3-10.18-35.86-22.94-48.21a69.89,69.89,0,0,0-48.8-19.85c-18.69,0-37.34,7.84-51.17,21.5-12.83,12.68-20.44,28.94-21.61,46l72.19,71.75m97.28,96.69a70.74,70.74,0,0,0-4.62-141.3c-16.57,0-31.34,7.18-46.48,22.61-10.74,10.94-20.48,24.85-29.45,38.63l80.55,80.06m-194,.15c31.09,0,52.85-28.48,74.41-61.88l-79.05-79.42a70.72,70.72,0,0,0,4.64,141.3M403.11,245.4A106.24,106.24,0,0,0,361.18,254,111.75,111.75,0,0,0,303,311.36a105.14,105.14,0,0,0-8.14,29.26,106.82,106.82,0,0,0,10.87,213.11c25.42,0,48.14-10.51,69.46-32.14a231,231,0,0,0,23.52-28.75l56.6,56.87,3.89,3.9,5.5-.07,42.4-.55h.73l.72-.09A107,107,0,0,0,602,446.9a105.82,105.82,0,0,0-31.86-75.63,107.08,107.08,0,0,0-60-30.12C506.6,316.23,494.69,292.5,477,275.4a105.78,105.78,0,0,0-73.9-30ZM344,344.28a59.68,59.68,0,0,1,17.1-32c11.42-11.28,26.73-17.75,42-17.75a57,57,0,0,1,39.76,16.19,65.27,65.27,0,0,1,18.48,35.94c-10.82,4.39-21.09,11-31.14,19.92-11.44,10.2-21.36,22.54-29.59,34L344,344.28Zm92,91.44c6.59-9.68,14-19.69,22-27.83,12.7-12.94,24.18-18.71,37.2-18.71a57.73,57.73,0,0,1,9.37,114.69L436,435.72ZM305.76,504.63A57.73,57.73,0,0,1,296.33,390l67.18,67.49c-8.05,12-16.66,23.65-25.87,32.3-10.81,10.16-20.94,14.89-31.88,14.89Z"
        transform="translate(-198.93 -245.4)"/>
  <polygon class="cls-3" points="285.03 289.5 208.78 213.25 202.51 222.85 269.16 289.5 285.03 289.5"/>
  <path class="cls-3"
        d="M495.18,534.79h-2.31l-87.4-86.86-1.84,2.92c-26.07,41.27-53,83.94-97.87,83.94a87.89,87.89,0,1,1,0-175.77h2.32l81.17,81.16-6.39,9.48-79.39-79.39a76.66,76.66,0,0,0,2.29,153.3c38.66,0,62.81-38.24,88.38-78.71l3.18-5L313,356v-2.34c0-48.43,41.26-89.35,90.1-89.35A87.41,87.41,0,0,1,463.84,289c16.24,15.71,26.06,37.71,28.12,59.21l.36,4.62a27.48,27.48,0,0,0-11.56,1.37l0-4.92C479,330.4,470.38,311,456,297.08a76.25,76.25,0,0,0-52.93-21.52c-20.24,0-40.41,8.46-55.34,23.21-14.61,14.43-22.9,33-23.5,52.62l79.23,78.76c24-37,50.31-71.13,91.68-71.13a87.89,87.89,0,1,1,0,175.77Zm-83.54-96.55,85.82,85.29a76.76,76.76,0,0,0,74.39-76.63,77.5,77.5,0,0,0-76.67-76.66c-18.27,0-34.39,7.75-50.72,24.39C432.65,406.66,421.92,422.25,411.64,438.24Z"
        transform="translate(-198.93 -245.4)"/>
</svg>
